<svg width="1736" height="516" viewBox="0 0 1736 516" fill="none" xmlns="http://www.w3.org/2000/svg">
<g clip-path="url(#clip0_5_2)">
<path d="M0 510.441H192.954C308.328 510.441 360.595 451.148 360.595 372.763C360.595 294.073 307.976 247.586 259.063 244.467V243.763C303.941 231.989 340.021 198.355 340.021 134.887C340.021 59.6449 289.091 0 183.171 0H0V510.441ZM76.2432 443.174V281.243H188.896C249.28 281.243 286.065 320.764 286.065 368.612C286.065 411.275 257.726 443.197 186.198 443.197L76.2432 443.174ZM76.2432 219.183V65.8604H180.122C240.178 65.8604 267.508 98.1104 267.508 139.039C267.508 187.918 229.035 219.136 178.785 219.136L76.2432 219.183ZM641.71 355.805C641.71 422.369 603.94 451.5 555.684 451.5C506.419 451.5 474.397 420.986 474.397 362.725V144.269H401.861V371.755C401.861 466.417 461.917 516 535.11 516C591.108 516 626.532 486.869 642.39 448.732H643.728V510.441H713.895V144.269H641.71V355.805ZM907.412 516C988.042 516 1049.11 469.185 1062.57 398.094H993.086C982.975 432.431 948.231 454.971 907.74 454.971C848.036 454.971 812.284 406.42 812.284 346.775H1066.96V327.707C1066.96 215.688 1006.58 138.71 905.723 138.71C804.871 138.71 739.419 216.392 739.419 328.059C739.419 439.702 805.199 516 907.412 516ZM812.636 292.337C815.662 243.435 850.077 199.387 905.066 199.387C956.325 199.387 994.775 237.196 996.464 292.337H812.636ZM1165 298.928C1165 232.317 1202.79 203.21 1250.69 203.21C1300.29 203.21 1332.33 233.725 1332.33 291.986V510.441H1404.52V282.956C1404.52 188.293 1344.81 138.71 1271.27 138.71C1215.62 138.71 1180.2 167.841 1164.34 205.978H1163V144.269H1092.48V510.441H1165.02L1165 298.928ZM1557.54 515.648C1618.61 515.648 1648.64 488.253 1664.14 458.419H1665.5V510.441H1736V259.407C1736 187.965 1681.01 138.734 1593.32 138.734C1503.59 138.734 1446.23 190.052 1442.85 257.32H1515.72C1518.77 224.038 1548.09 199.762 1592.64 199.762C1637.49 199.762 1663.82 224.038 1663.82 259.407V261.143C1663.82 287.858 1641.53 287.154 1574.76 295.48C1502.23 304.159 1434.1 322.523 1434.1 405.74C1434.1 478.918 1486.72 515.648 1557.54 515.648ZM1573.07 456.379C1531.93 456.379 1506.61 438.342 1506.28 407.124C1505.93 370.371 1541.01 355.805 1579.48 350.27C1616.92 345.063 1654.36 338.824 1664.17 331.202V373.49C1664.17 418.241 1634.8 456.379 1573.07 456.379Z" fill="black"/>
</g>
<defs>
<clipPath id="clip0_5_2">
<rect width="1736" height="516" fill="white"/>
</clipPath>
</defs>
</svg>
