<svg width="4186" height="1440" viewBox="0 0 4186 1440" fill="none" xmlns="http://www.w3.org/2000/svg">
<rect x="438" y="218" width="576" height="586" fill="white" stroke="white" stroke-width="20"/>
<path d="M10 580H653V1222H10V580Z" stroke="white" stroke-width="20"/>
<path d="M1268.65 419.4H1378.73L1443.4 876.232H1451.66L1516.33 419.4H1626.41V901H1572.74V444.168H1564.49L1499.82 901H1395.24L1330.57 444.168H1322.31V901H1268.65V419.4ZM1965.8 843.208H1957.55C1946.54 866.141 1931.17 883.112 1911.45 894.12C1892.19 905.128 1871.77 910.632 1850.22 910.632C1827.74 910.632 1806.87 906.963 1787.61 899.624C1768.35 891.827 1751.37 880.589 1736.7 865.912C1722.48 850.776 1711.24 832.429 1702.99 810.872C1694.73 789.315 1690.6 764.317 1690.6 735.88V724.872C1690.6 696.893 1694.73 672.125 1702.99 650.568C1711.24 629.011 1722.48 610.893 1736.7 596.216C1751.37 581.08 1768.35 569.613 1787.61 561.816C1806.87 554.019 1827.28 550.12 1848.84 550.12C1872.23 550.12 1893.33 555.395 1912.14 565.944C1931.4 576.035 1946.54 591.859 1957.55 613.416H1965.8V559.752H2019.47V830.824C2019.47 844.584 2025.66 851.464 2038.04 851.464H2055.24V901H2018.78C2003.18 901 1990.34 895.955 1980.25 885.864C1970.62 875.773 1965.8 862.931 1965.8 847.336V843.208ZM1855.72 859.72C1871.77 859.72 1886.45 856.739 1899.75 850.776C1913.51 844.813 1925.21 836.328 1934.84 825.32C1944.47 814.312 1952.04 801.24 1957.55 786.104C1963.05 770.509 1965.8 753.309 1965.8 734.504V726.248C1965.8 707.901 1963.05 691.16 1957.55 676.024C1952.04 660.429 1944.24 647.128 1934.15 636.12C1924.52 625.112 1912.83 616.627 1899.07 610.664C1885.76 604.243 1871.32 601.032 1855.72 601.032C1839.67 601.032 1824.99 604.013 1811.69 609.976C1798.39 615.939 1786.69 624.424 1776.6 635.432C1766.97 645.981 1759.4 659.053 1753.9 674.648C1748.39 689.784 1745.64 706.525 1745.64 724.872V735.88C1745.64 774.867 1755.73 805.368 1775.91 827.384C1796.55 848.941 1823.16 859.72 1855.72 859.72ZM2210.25 647.816C2210.25 664.328 2217.13 676.941 2230.89 685.656C2245.11 694.371 2270.8 700.104 2307.95 702.856C2347.85 706.067 2378.12 715.699 2398.76 731.752C2419.86 747.347 2430.41 770.28 2430.41 800.552V804.68C2430.41 821.192 2426.97 836.099 2420.09 849.4C2413.67 862.243 2404.5 873.251 2392.57 882.424C2381.1 891.597 2366.89 898.477 2349.92 903.064C2333.4 908.109 2315.29 910.632 2295.56 910.632C2268.96 910.632 2246.03 907.192 2226.76 900.312C2207.96 892.973 2192.13 883.571 2179.29 872.104C2166.91 860.179 2157.5 846.877 2151.08 832.2C2144.66 817.064 2140.99 801.928 2140.08 786.792L2190.99 774.408C2193.28 800.552 2203.37 821.651 2221.26 837.704C2239.15 853.299 2263 861.096 2292.81 861.096C2318.04 861.096 2338.22 856.28 2353.36 846.648C2368.95 836.557 2376.75 822.568 2376.75 804.68C2376.75 785.416 2369.18 771.656 2354.04 763.4C2338.91 755.144 2314.37 749.869 2280.43 747.576C2240.98 744.824 2210.71 735.651 2189.61 720.056C2168.51 704.461 2157.96 681.757 2157.96 651.944V647.816C2157.96 631.763 2161.4 617.773 2168.28 605.848C2175.16 593.464 2184.34 583.144 2195.8 574.888C2207.73 566.632 2221.03 560.44 2235.71 556.312C2250.38 552.184 2265.75 550.12 2281.8 550.12C2304.28 550.12 2324 553.331 2340.97 559.752C2357.94 565.715 2372.16 573.741 2383.63 583.832C2395.09 593.464 2403.81 604.701 2409.77 617.544C2416.19 630.387 2420.32 643.229 2422.16 656.072L2371.24 668.456C2368.95 646.44 2360.01 629.24 2344.41 616.856C2329.28 604.472 2309.32 598.28 2284.56 598.28C2274.92 598.28 2265.52 599.427 2256.35 601.72C2247.63 603.555 2239.84 606.536 2232.96 610.664C2226.08 614.792 2220.57 620.067 2216.44 626.488C2212.32 632.451 2210.25 639.56 2210.25 647.816ZM2648.72 701.48H2660.41L2790.44 559.752H2856.49V563.88L2714.76 720.056V732.44L2873 896.872V901H2806.96L2661.79 751.016H2648.72V901H2595.05V419.4H2648.72V701.48ZM2961.28 847.336H3002.56V473.064H2961.28V419.4H3155.98C3178.92 419.4 3199.1 422.611 3216.53 429.032C3234.41 435.453 3249.32 444.168 3261.25 455.176C3273.63 466.184 3282.8 479.485 3288.77 495.08C3295.19 510.216 3298.4 526.728 3298.4 544.616V552.872C3298.4 566.173 3296.33 578.328 3292.21 589.336C3288.08 600.344 3282.35 610.205 3275.01 618.92C3267.67 627.635 3258.95 635.203 3248.86 641.624C3239.23 647.587 3228.68 652.173 3217.21 655.384V663.64C3240.15 670.061 3259.41 682.445 3275.01 700.792C3290.6 718.68 3298.4 740.696 3298.4 766.84V775.096C3298.4 792.984 3295.19 809.725 3288.77 825.32C3282.8 840.456 3273.63 853.757 3261.25 865.224C3249.32 876.232 3234.41 884.947 3216.53 891.368C3199.1 897.789 3178.92 901 3155.98 901H2961.28V847.336ZM3060.35 847.336H3151.85C3178.92 847.336 3200.93 840.685 3217.9 827.384C3234.87 813.624 3243.36 794.819 3243.36 770.968V766.84C3243.36 742.072 3235.33 722.579 3219.28 708.36C3203.23 693.683 3181.44 686.344 3153.92 686.344H3060.35V847.336ZM3060.35 632.68H3153.92C3181.44 632.68 3203.23 625.571 3219.28 611.352C3235.33 597.133 3243.36 577.64 3243.36 552.872V548.744C3243.36 525.352 3234.87 507.005 3217.9 493.704C3200.93 479.944 3178.92 473.064 3151.85 473.064H3060.35V632.68ZM3509.14 457.928C3509.14 444.627 3513.72 433.389 3522.9 424.216C3532.53 414.584 3543.99 409.768 3557.3 409.768C3570.6 409.768 3581.83 414.584 3591.01 424.216C3600.64 433.389 3605.46 444.627 3605.46 457.928C3605.46 471.229 3600.64 482.696 3591.01 492.328C3581.83 501.501 3570.6 506.088 3557.3 506.088C3543.99 506.088 3532.53 501.501 3522.9 492.328C3513.72 482.696 3509.14 471.229 3509.14 457.928ZM3411.44 851.464H3531.15V609.288H3423.82V559.752H3584.82V851.464H3696.27V901H3411.44V851.464ZM4088.64 848.712H4080.39C4074.88 859.261 4067.77 868.435 4059.06 876.232C4050.8 884.029 4041.63 890.451 4031.54 895.496C4021.91 900.541 4011.59 904.211 4000.58 906.504C3989.57 909.256 3979.02 910.632 3968.93 910.632C3946 910.632 3924.67 906.733 3904.95 898.936C3885.22 891.139 3867.79 879.901 3852.66 865.224C3837.98 850.547 3826.28 832.429 3817.57 810.872C3809.31 788.856 3805.19 763.859 3805.19 735.88V724.872C3805.19 697.352 3809.54 672.813 3818.26 651.256C3826.97 629.24 3838.67 610.893 3853.35 596.216C3868.02 581.08 3885.22 569.613 3904.95 561.816C3924.67 554.019 3945.54 550.12 3967.55 550.12C3990.95 550.12 4012.73 555.395 4032.91 565.944C4053.55 576.035 4069.38 591.859 4080.39 613.416H4088.64V419.4H4142.31V901H4088.64V848.712ZM3974.43 859.72C3990.49 859.72 4005.39 856.739 4019.15 850.776C4032.91 844.813 4044.84 836.328 4054.93 825.32C4065.48 814.312 4073.74 801.24 4079.7 786.104C4085.66 770.509 4088.64 753.309 4088.64 734.504V726.248C4088.64 707.901 4085.66 691.16 4079.7 676.024C4073.74 660.429 4065.48 647.128 4054.93 636.12C4044.84 625.112 4032.68 616.627 4018.47 610.664C4004.71 604.243 3990.03 601.032 3974.43 601.032C3958.38 601.032 3943.24 604.013 3929.03 609.976C3915.27 615.939 3903.11 624.424 3892.56 635.432C3882.47 646.44 3874.44 659.512 3868.48 674.648C3862.98 689.784 3860.23 706.525 3860.23 724.872V735.88C3860.23 755.144 3862.98 772.344 3868.48 787.48C3874.44 802.616 3882.47 815.688 3892.56 826.696C3903.11 837.245 3915.27 845.501 3929.03 851.464C3942.79 856.968 3957.92 859.72 3974.43 859.72Z" fill="white"/>
</svg>
